<?xml version="1.0" standalone="no"?>
<!DOCTYPE svg PUBLIC "-//W3C//DTD SVG 20010904//EN"
 "http://www.w3.org/TR/2001/REC-SVG-20010904/DTD/svg10.dtd">
<svg version="1.0" xmlns="http://www.w3.org/2000/svg"
 width="500.000000pt" height="500.000000pt" viewBox="0 0 500.000000 500.000000"
 preserveAspectRatio="xMidYMid meet">

<g transform="translate(0.000000,500.000000) scale(0.100000,-0.100000)"
fill="#000000" stroke="none">
<path d="M2320 4964 c-517 -47 -960 -220 -1362 -534 -195 -152 -434 -424 -566
-641 -481 -798 -481 -1770 0 -2568 132 -217 371 -489 566 -641 369 -288 780
-461 1242 -522 122 -16 478 -16 600 0 834 110 1536 607 1909 1348 201 400 291
871 251 1309 -55 588 -300 1116 -710 1525 -69 69 -162 154 -208 190 -356 278
-752 449 -1192 515 -102 15 -438 27 -530 19z m495 -119 c606 -85 1150 -392
1528 -865 201 -251 370 -592 446 -900 93 -379 92 -757 -3 -1140 -206 -830
-867 -1493 -1700 -1705 -215 -54 -342 -69 -586 -69 -244 0 -371 15 -586 69
-833 212 -1494 875 -1700 1705 -95 383 -96 761 -3 1140 76 308 245 649 446
900 218 273 490 490 808 646 279 136 569 213 900 238 87 7 346 -4 450 -19z"/>
<path d="M2275 4679 c-18 -7 -17 -8 6 -8 15 -1 30 -8 33 -17 3 -9 5 -77 4
-152 0 -75 -3 -122 -5 -104 -5 40 -13 40 -35 2 -20 -34 -77 -63 -116 -58 -28
3 -33 16 -46 100 l-7 47 46 7 c40 6 50 3 72 -17 l26 -24 -6 40 c-4 22 -7 48
-7 58 0 9 -4 17 -10 17 -5 0 -10 -6 -10 -14 0 -22 -24 -35 -73 -42 l-45 -6 -7
57 c-5 37 -4 60 4 68 18 18 106 14 128 -5 26 -24 33 -23 33 5 0 47 -7 48 -150
22 -133 -25 -167 -35 -117 -35 15 0 27 -2 27 -3 0 -2 11 -65 25 -141 14 -75
23 -141 20 -146 -13 -21 -24 -8 -19 20 12 58 -29 110 -87 110 -19 0 -19 1 -5
22 21 30 20 71 -2 91 -36 33 -156 11 -308 -55 -52 -22 -73 -41 -35 -31 10 3
21 1 24 -4 4 -8 -11 -145 -18 -151 -4 -4 -94 42 -120 61 -16 13 -17 17 -6 31
7 9 10 16 6 16 -15 0 -181 -92 -226 -125 -90 -65 -125 -191 -72 -264 24 -33
98 -71 138 -71 55 0 126 31 171 75 46 44 55 75 30 108 -21 27 -26 21 -26 -29
0 -39 -5 -51 -34 -80 -30 -30 -41 -34 -83 -34 -152 0 -231 215 -109 292 24 15
42 18 79 13 48 -6 59 3 32 25 -35 29 -2 18 91 -28 91 -46 101 -54 122 -96 26
-55 28 -72 6 -80 -9 -4 -14 -9 -11 -12 7 -7 146 58 146 68 1 4 -11 5 -27 2
-26 -5 -30 -1 -56 54 -28 59 -28 59 -16 146 14 89 31 129 48 111 5 -5 29 -68
52 -138 41 -126 42 -129 24 -149 -19 -21 -19 -21 0 -14 11 4 43 14 70 22 69
21 123 39 171 57 53 20 371 70 395 62 10 -3 21 -1 25 5 3 5 -2 10 -13 10 -26
0 -32 18 -32 92 0 56 1 59 23 56 15 -2 38 -27 72 -80 l50 -78 55 1 c48 0 52 2
31 12 -12 6 -45 43 -71 82 l-48 71 34 28 c50 39 46 94 -8 122 -31 16 -215 19
-253 3z m208 -27 c22 -20 22 -74 -1 -95 -21 -19 -77 -33 -85 -21 -2 5 -8 35
-11 67 -7 53 -6 58 15 66 28 10 58 4 82 -17z m-599 -103 c35 -28 33 -61 -5
-93 -17 -14 -34 -26 -39 -26 -5 0 -15 -3 -23 -6 -11 -4 -19 8 -31 42 -22 66
-20 81 12 92 41 16 57 14 86 -9z m73 -141 c23 -21 30 -59 17 -93 -14 -35 -101
-59 -121 -32 -12 14 -47 117 -42 121 2 2 18 8 34 14 49 17 87 14 112 -10z"/>
<path d="M2699 4677 c13 -6 24 -14 24 -17 1 -3 -7 -60 -18 -127 -14 -95 -16
-128 -7 -147 18 -41 67 -60 157 -62 44 -1 89 -6 100 -10 11 -4 41 -15 68 -25
26 -10 47 -14 47 -9 0 6 -7 10 -15 10 -9 0 -18 7 -21 15 -8 19 76 250 86 238
3 -4 37 -88 75 -186 39 -101 73 -176 79 -174 6 3 42 -11 79 -31 37 -19 70 -32
74 -29 3 4 -2 9 -11 13 -9 3 -16 13 -16 22 0 12 113 238 125 250 2 2 17 1 34
-3 38 -8 38 -9 9 -213 -12 -83 -19 -155 -16 -158 4 -3 72 33 152 81 139 82
174 95 183 68 2 -6 -41 -58 -96 -115 -93 -96 -101 -102 -121 -90 -50 31 -22
-3 120 -141 82 -80 150 -151 150 -157 0 -5 5 -10 10 -10 7 0 7 6 0 19 -14 28
-15 26 46 72 45 35 57 40 65 28 14 -22 11 -38 -23 -121 l-32 -78 21 -22 c11
-13 30 -41 41 -64 49 -98 143 -134 199 -78 25 25 26 28 20 122 -6 81 -4 99 10
114 22 25 46 23 77 -8 30 -30 33 -62 11 -104 -16 -32 -8 -38 26 -20 27 15 24
47 -10 106 -38 65 -87 92 -133 73 -40 -16 -49 -45 -46 -149 3 -100 -6 -120
-57 -120 -24 0 -39 7 -54 27 -32 40 -36 70 -15 112 28 55 28 55 10 48 -12 -5
-16 -3 -12 5 2 7 10 30 17 51 9 29 16 36 28 31 67 -29 121 -3 121 60 0 39 -34
92 -141 220 -4 4 -6 -5 -6 -21 2 -27 -9 -39 -102 -112 -56 -44 -110 -81 -119
-81 -12 0 -10 6 8 25 l23 25 -49 0 c-40 0 -56 6 -87 31 -20 17 -37 38 -37 48
0 9 22 38 48 64 l48 47 33 -34 c28 -29 33 -40 28 -65 -4 -17 -3 -31 1 -31 4 0
26 19 47 41 38 39 38 41 14 35 -20 -4 -36 2 -67 26 -23 18 -42 37 -42 43 0 14
72 85 87 85 6 0 27 -18 47 -40 27 -30 36 -49 36 -75 0 -19 4 -35 8 -35 12 0
42 34 42 47 0 6 -49 55 -109 109 -150 135 -198 170 -170 125 7 -10 10 -25 7
-32 -6 -14 -176 -125 -182 -118 -1 2 4 54 13 114 15 103 17 110 39 109 12 0
22 2 22 5 -1 10 -109 78 -185 117 -38 20 -86 44 -106 54 -19 10 -49 22 -65 26
l-29 7 24 -20 25 -20 -34 -92 c-18 -50 -36 -93 -40 -96 -4 -2 -32 60 -62 138
-52 135 -57 143 -93 160 -41 20 -185 51 -194 42 -3 -3 5 -9 18 -12 22 -6 23
-9 18 -67 -11 -107 -29 -186 -47 -209 -15 -18 -28 -22 -68 -21 -59 1 -97 22
-104 58 -5 23 24 221 36 253 3 7 16 13 28 14 13 0 -8 7 -47 14 -90 17 -106 18
-76 2z m385 -70 c16 -12 14 -21 -29 -137 -49 -136 -62 -155 -93 -146 -18 6
-19 9 -7 34 8 15 21 72 31 127 9 55 21 108 26 118 10 20 47 22 72 4z m356
-137 l25 -19 -63 -126 c-61 -122 -82 -149 -104 -127 -7 7 4 50 37 139 46 123
60 153 74 153 3 0 17 -9 31 -20z m763 -612 c17 -22 19 -33 11 -55 -20 -59 -97
-68 -131 -16 -17 26 -17 26 27 65 51 43 64 44 93 6z"/>
<path d="M2389 4179 c-752 -52 -1381 -608 -1529 -1350 -8 -42 -15 -56 -27 -55
-38 3 -58 -206 -29 -309 7 -28 17 -58 21 -67 6 -16 4 -17 -26 -4 -81 33 -79
34 -79 -31 1 -50 15 -109 44 -174 6 -14 -1 -18 -43 -24 -27 -4 -58 -13 -68
-20 -17 -13 -17 -15 2 -52 32 -61 109 -131 180 -165 43 -20 70 -40 80 -58 l14
-27 -87 -6 c-86 -6 -152 -22 -152 -37 0 -18 139 -137 193 -165 33 -17 55 -35
53 -42 -7 -18 65 -110 125 -159 29 -23 81 -55 115 -71 35 -15 64 -30 64 -33 0
-3 -27 -21 -60 -39 -33 -19 -60 -40 -60 -45 0 -13 75 -64 137 -95 63 -31 169
-53 240 -49 35 2 63 1 63 -2 0 -3 -14 -25 -30 -49 -17 -24 -30 -47 -30 -51 0
-22 141 -34 229 -21 61 10 77 9 95 -2 12 -8 36 -18 54 -21 39 -9 41 -19 5 -32
l-28 -9 62 -48 c34 -26 66 -47 73 -47 6 0 37 13 69 30 l59 29 69 -14 c128 -27
314 -38 451 -25 70 6 145 15 167 20 65 15 102 11 158 -16 l54 -27 68 49 68 48
-29 12 c-26 11 -27 13 -9 20 11 4 38 15 60 24 33 15 50 16 100 8 55 -9 159 -5
213 9 l23 5 -19 33 c-11 17 -26 43 -35 56 l-16 24 92 1 c68 0 110 6 159 23 62
21 178 87 192 109 7 12 -8 25 -74 61 l-52 29 65 31 c36 17 89 49 116 72 65 50
143 149 131 164 -6 7 13 22 57 44 62 32 201 156 189 168 -12 12 -124 33 -178
33 -32 0 -58 2 -58 5 0 26 31 56 83 80 33 15 83 48 110 73 57 54 104 129 90
143 -5 5 -37 15 -70 22 l-61 12 20 38 c19 38 47 191 36 202 -3 3 -25 -1 -49
-9 -24 -9 -47 -16 -51 -16 -3 0 1 26 10 58 28 103 13 332 -22 332 -7 0 -17 29
-24 69 -16 95 -74 266 -128 380 -134 285 -387 560 -664 723 -211 125 -475 209
-696 223 -49 3 -107 7 -129 9 -22 1 -88 -1 -146 -5z m451 -48 c346 -77 632
-238 873 -491 194 -204 330 -450 402 -725 34 -133 33 -146 -11 -170 -84 -45
-142 -165 -151 -311 l-6 -91 -58 24 c-91 37 -219 31 -282 -12 -16 -11 -14 -15
21 -47 34 -30 40 -43 46 -91 12 -108 66 -209 130 -244 18 -10 17 -13 -13 -56
l-33 -45 -35 24 c-69 47 -207 72 -219 40 -3 -8 1 -39 10 -69 18 -62 85 -144
145 -178 l38 -21 -5 -56 c-4 -55 -7 -59 -65 -112 -33 -30 -63 -56 -67 -58 -4
-2 -9 37 -12 85 -5 94 -22 146 -52 151 -23 5 -103 -77 -141 -145 -27 -47 -32
-51 -84 -63 -71 -16 -161 -61 -210 -105 -36 -33 -38 -34 -34 -11 l5 25 -58
-16 c-165 -43 -270 -138 -305 -277 -13 -53 -25 -59 -34 -16 -24 109 -221 116
-262 10 -17 -43 -33 -53 -33 -20 0 42 -43 131 -87 180 -50 55 -157 114 -230
126 -39 6 -43 5 -43 -14 0 -17 -5 -15 -37 15 -48 43 -138 88 -209 104 -51 12
-57 16 -89 69 -39 65 -130 154 -146 144 -22 -13 -40 -77 -46 -159 l-6 -83 -68
57 -68 56 -1 57 c0 49 3 59 23 69 55 29 107 82 136 141 35 69 40 115 14 125
-30 12 -144 -15 -192 -44 l-46 -29 -31 42 -32 42 43 36 c54 45 93 125 101 208
6 56 11 68 46 105 l40 41 -32 17 c-73 38 -201 35 -281 -5 -50 -26 -53 -25 -46
8 8 42 -9 161 -34 227 -20 55 -89 139 -132 162 -17 9 -17 13 2 100 131 603
591 1086 1186 1248 165 45 253 55 470 51 156 -3 221 -9 295 -25z m-1938 -1448
c26 -27 59 -74 73 -105 29 -63 42 -170 30 -234 -7 -38 -7 -37 -31 53 -26 101
-71 220 -86 229 -24 15 -28 -15 -9 -64 24 -60 74 -252 68 -259 -8 -7 -60 61
-78 102 -28 63 -42 167 -34 251 4 40 10 74 14 74 4 0 28 -21 53 -47z m3264 11
c12 -63 -2 -215 -25 -274 -25 -65 -80 -137 -81 -105 0 31 28 139 56 223 18 50
23 77 16 84 -6 6 -15 8 -20 4 -8 -5 -74 -194 -99 -286 l-9 -35 -8 57 c-9 71 7
166 40 231 25 48 99 137 115 137 4 0 11 -16 15 -36z m-2902 -343 c3 -5 -26
-19 -64 -31 -39 -12 -90 -35 -115 -51 -25 -16 -45 -24 -45 -19 0 19 76 86 110
97 43 14 107 16 114 4z m2581 -2 c40 -11 115 -76 115 -99 0 -10 -5 -9 -17 2
-26 23 -90 53 -156 74 -86 27 -33 48 58 23z m-2967 -54 c46 -42 102 -130 102
-162 0 -11 -5 -11 -27 1 -47 24 -110 102 -138 170 -22 51 0 48 63 -9z m3317
23 c-9 -27 -40 -81 -73 -125 -23 -31 -89 -80 -97 -72 -7 7 23 80 49 120 25 37
98 99 118 99 5 0 6 -10 3 -22z m-2905 -18 c0 -18 -74 -59 -128 -70 -87 -19
-81 -6 19 37 105 46 109 47 109 33z m2518 -27 c109 -45 123 -58 57 -48 -56 8
-111 33 -139 64 -26 28 -18 27 82 -16z m-2989 -48 c22 -32 38 -61 36 -64 -14
-13 -85 87 -85 120 0 16 1 14 49 -56z m3384 -13 c-16 -26 -36 -48 -45 -50 -12
-2 -5 15 25 60 47 71 65 62 20 -10z m-2923 -46 c-12 -60 -58 -139 -90 -156
-12 -6 -23 -10 -26 -8 -2 2 10 38 26 79 16 40 29 82 30 92 0 11 15 33 33 49
39 37 44 26 27 -56z m2476 56 c12 -9 27 -38 33 -65 6 -26 22 -72 36 -102 28
-64 16 -72 -33 -22 -38 39 -72 121 -72 172 0 39 6 42 36 17z m-2581 -64 c-4
-18 -17 -58 -28 -88 l-21 -55 -9 65 c-10 79 1 110 39 110 24 0 25 -2 19 -32z
m2703 20 c14 -14 16 -116 3 -137 -9 -14 -30 33 -50 112 -9 34 -8 37 13 37 12
0 27 -5 34 -12z m-2810 -8 c8 0 12 -21 12 -70 0 -38 -4 -70 -8 -70 -13 0 -50
72 -58 114 -7 38 -6 39 17 33 13 -4 30 -7 37 -7z m2922 -17 c0 -31 -32 -107
-49 -117 -8 -5 -11 14 -11 63 0 58 3 70 18 74 36 10 42 7 42 -20z m-3097 -43
c47 -15 76 -31 106 -61 22 -23 41 -45 41 -49 0 -4 -57 18 -127 48 -79 34 -145
56 -173 58 -25 2 -47 3 -50 4 -3 0 2 5 10 10 25 16 124 11 193 -10z m3408 5
c-2 -5 -13 -9 -23 -7 -24 4 -69 -11 -197 -65 -57 -24 -105 -42 -108 -40 -2 3
8 19 23 36 30 36 84 67 141 80 50 12 169 9 164 -4z m-3416 -100 c60 -26 118
-53 128 -60 17 -12 17 -13 -5 -18 -35 -10 -97 3 -155 31 -55 26 -123 82 -123
101 0 12 2 12 155 -54z m3367 22 c-59 -63 -201 -118 -254 -98 -22 8 -21 9 12
26 79 41 255 112 259 103 2 -5 -6 -19 -17 -31z m-3122 -223 c10 -49 29 -119
43 -156 13 -38 21 -68 17 -68 -43 0 -77 61 -92 168 -10 68 -5 162 8 149 3 -3
13 -45 24 -93z m95 2 c33 -70 59 -236 36 -236 -21 0 -111 257 -111 319 0 25
48 -28 75 -83z m2683 -8 c-5 -114 -34 -202 -70 -214 -11 -3 -21 -4 -23 -2 -2
2 9 42 25 88 16 47 35 117 41 157 17 108 32 92 27 -29z m-2854 40 c-4 -29 -8
-54 -9 -56 -2 -2 -15 4 -30 14 -27 17 -59 69 -51 82 2 4 25 8 50 10 l47 3 -7
-53z m285 3 c-44 -40 -55 -46 -60 -32 -8 20 17 50 56 67 57 25 59 14 4 -35z
m2346 26 c25 -14 41 -31 43 -45 5 -31 -6 -28 -66 23 -60 50 -47 62 23 22z
m141 -101 c-14 -53 -38 -119 -53 -148 l-28 -53 -3 50 c-6 92 25 193 77 248 36
40 38 19 7 -97z m214 101 c0 -20 -60 -87 -79 -87 -7 0 -11 22 -11 55 l0 55 45
-2 c37 -1 45 -5 45 -21z m-2596 -19 c-11 -37 -44 -78 -87 -109 -48 -35 -57
-36 -57 -6 0 23 33 59 100 110 43 33 53 34 44 5z m2220 -53 c43 -37 49 -46 40
-64 -9 -22 -9 -22 -56 9 -48 32 -88 84 -88 114 0 16 2 16 28 1 15 -9 49 -36
76 -60z m-2668 -33 c38 -20 84 -74 84 -100 0 -6 -32 9 -70 32 -39 24 -97 54
-130 66 -33 12 -60 25 -60 28 0 13 139 -7 176 -26z m3119 -7 c-44 -19 -105
-50 -135 -69 -30 -19 -56 -33 -58 -31 -7 6 27 60 51 83 32 30 98 51 167 51
l55 1 -80 -35z m-3325 9 c0 -8 -4 -12 -10 -9 -5 3 -10 10 -10 16 0 5 5 9 10 9
6 0 10 -7 10 -16z m3450 7 c0 -6 -4 -13 -10 -16 -5 -3 -10 1 -10 9 0 9 5 16
10 16 6 0 10 -4 10 -9z m-3314 -77 c39 -19 77 -40 84 -49 11 -13 8 -15 -17
-15 -39 0 -122 43 -159 81 -29 31 -29 31 -4 24 14 -4 57 -23 96 -41z m3244 15
c-50 -43 -124 -79 -162 -79 -32 1 -32 1 -13 17 28 22 177 92 195 92 9 0 1 -12
-20 -30z m-2542 -228 c37 -68 64 -161 60 -198 -3 -27 -4 -26 -35 22 -17 28
-52 99 -78 160 -26 60 -51 113 -57 116 -6 4 -7 12 -3 19 11 18 78 -52 113
-119z m1862 122 c0 -6 -6 -20 -95 -211 -44 -92 -85 -153 -85 -124 0 73 67 234
124 300 34 38 56 52 56 35z m-2305 -58 c33 -9 80 -26 105 -37 43 -21 130 -99
130 -116 0 -5 -66 25 -147 65 -147 74 -218 97 -232 75 -4 -7 -11 -4 -19 8 -12
19 -9 20 46 20 32 0 85 -7 117 -15z m2807 3 c-6 -6 -34 -12 -61 -12 -41 -1
-75 -14 -200 -77 -153 -78 -173 -79 -92 -6 75 68 179 105 301 106 49 1 61 -2
52 -11z m-485 -75 c-3 -38 -13 -89 -22 -116 -21 -58 -87 -132 -137 -152 l-38
-15 49 67 c51 71 110 181 131 246 17 56 24 45 17 -30z m-1895 -169 c24 -38 52
-75 61 -83 26 -21 20 -31 -11 -20 -47 16 -99 67 -126 122 -26 53 -52 180 -40
198 3 6 21 -25 39 -69 18 -43 52 -110 77 -148z m-387 131 c72 -34 139 -70 150
-78 19 -16 19 -16 -16 -17 -91 0 -228 68 -278 139 -28 38 -30 39 144 -44z
m2674 19 c-57 -59 -146 -102 -226 -110 -35 -4 -63 -4 -63 -1 0 15 319 171 329
161 3 -3 -15 -25 -40 -50z m-2149 -50 c0 -8 36 -52 79 -97 86 -89 172 -190
166 -195 -7 -8 -70 32 -112 71 -48 44 -106 123 -142 195 -18 35 -19 42 -6 42
8 0 15 -7 15 -16z m1530 9 c0 -14 -65 -121 -107 -174 -24 -31 -63 -69 -86 -86
-43 -31 -77 -47 -77 -37 0 9 152 183 199 229 23 21 41 47 41 57 0 10 7 18 15
18 8 0 15 -3 15 -7z m-1377 -83 c49 -44 108 -130 90 -130 -9 0 -183 172 -183
181 0 17 46 -8 93 -51z m1207 -35 c-52 -52 -96 -92 -98 -90 -7 7 54 97 85 127
23 22 84 56 103 58 2 0 -38 -43 -90 -95z m-987 -22 c27 -13 69 -44 94 -69 49
-49 99 -145 89 -171 -9 -21 -42 10 -143 135 -42 50 -82 92 -89 92 -27 0 -12
-28 73 -138 36 -46 62 -86 59 -89 -9 -10 -82 44 -111 81 -29 38 -65 132 -65
171 0 31 12 29 93 -12z m851 0 c-9 -58 -51 -144 -87 -181 -30 -32 -85 -67 -92
-60 -2 2 30 48 71 102 72 96 89 131 61 124 -8 -2 -48 -43 -89 -93 -41 -49 -88
-103 -104 -120 -28 -30 -29 -30 -32 -7 -10 68 86 189 190 242 82 40 91 39 82
-7z m-1457 -9 c25 -16 52 -39 60 -51 14 -21 14 -21 -24 -8 -21 7 -89 23 -151
36 -84 16 -116 19 -124 11 -7 -7 -9 -14 -6 -17 3 -3 73 -22 157 -42 83 -20
151 -40 151 -44 0 -13 -88 -22 -154 -17 -34 3 -84 15 -112 27 -54 24 -124 70
-124 81 0 7 90 43 135 54 11 3 48 3 83 2 48 -3 74 -11 109 -32z m2204 16 c92
-29 100 -36 69 -62 -47 -40 -148 -80 -215 -85 -67 -6 -155 3 -155 16 0 4 53
19 118 35 190 45 192 46 192 61 0 8 -9 15 -20 15 -17 0 -187 -35 -270 -55 -22
-6 -19 -1 18 33 67 63 153 77 263 42z m-1911 -82 c0 -14 -33 -8 -52 9 -10 9
-18 30 -18 47 l0 31 35 -40 c19 -22 34 -43 35 -47z m1460 57 c0 -31 -35 -67
-60 -63 -18 3 -16 7 13 45 37 49 47 53 47 18z m-1416 -124 c25 -10 22 -12
-114 -56 -63 -20 -125 -44 -138 -52 -13 -8 -28 -13 -34 -11 -16 6 73 89 117
109 41 19 133 24 169 10z m1462 -10 c43 -20 124 -86 124 -102 0 -11 -27 -12
-32 0 -1 4 -61 27 -133 51 -152 50 -155 51 -129 61 37 14 128 9 170 -10z
m-1366 -40 c0 -19 -142 -69 -205 -72 -80 -4 -78 3 10 30 50 16 101 33 115 39
31 13 80 15 80 3z m1265 -31 l120 -40 -75 3 c-75 4 -210 48 -210 68 0 17 46 8
165 -31z m-1175 1 c0 -12 -81 -51 -105 -51 -13 0 -7 8 21 29 38 29 84 41 84
22z m1007 -21 c37 -24 42 -30 25 -30 -25 0 -97 34 -107 50 -13 21 36 9 82 -20z
m-884 -22 c16 -12 5 -17 -97 -42 -80 -19 -120 -25 -132 -18 -13 7 -7 12 32 21
27 7 72 24 99 40 50 28 60 27 98 -1z m887 -42 c46 -11 51 -14 32 -20 -14 -5
-69 3 -140 19 l-116 28 28 22 28 22 57 -28 c31 -16 81 -35 111 -43z m-370 -31
c107 -25 165 -47 149 -55 -68 -38 -471 -40 -644 -4 -29 7 -28 7 25 26 140 49
341 63 470 33z"/>
<path d="M2468 3973 c-35 -36 -38 -43 -38 -99 l0 -60 -71 -18 c-108 -28 -220
-88 -273 -147 -74 -82 -99 -146 -104 -264 -3 -67 1 -121 11 -165 9 -35 13 -68
11 -71 -2 -4 -33 -24 -68 -43 -157 -88 -311 -226 -376 -336 -113 -193 -138
-345 -94 -564 52 -256 252 -401 549 -400 138 1 207 24 276 93 53 52 69 95 69
188 0 95 2 93 -106 93 l-95 0 17 -32 c10 -18 18 -53 18 -78 2 -87 -55 -132
-165 -131 -70 0 -105 17 -153 72 -89 105 -104 283 -43 519 19 74 48 166 66
204 45 101 135 228 228 326 74 78 80 87 67 105 -30 41 -56 131 -56 197 -1 127
85 254 218 319 35 18 66 30 68 28 3 -2 0 -132 -4 -289 -5 -157 -9 -313 -10
-347 l0 -61 45 -26 46 -25 45 27 45 27 -7 348 c-4 191 -4 347 0 347 29 0 130
-63 177 -109 81 -82 104 -136 104 -241 0 -76 -4 -93 -33 -152 l-32 -66 63 -63
c176 -177 273 -361 326 -616 50 -243 3 -442 -122 -506 -46 -23 -143 -25 -190
-2 -62 29 -84 105 -52 182 8 19 15 37 15 39 0 9 -179 3 -185 -6 -4 -6 -7 -47
-7 -91 0 -133 52 -207 176 -249 252 -86 567 29 671 245 60 123 82 335 50 460
-63 242 -204 413 -468 567 -39 23 -74 43 -76 44 -2 2 4 39 13 84 32 162 12
279 -68 388 -67 90 -137 128 -363 198 -9 2 -13 24 -13 64 0 54 -3 64 -32 96
l-33 35 -37 -38z"/>
<path d="M2114 2929 c-34 -10 -67 -25 -73 -33 -11 -14 -180 -577 -175 -584 1
-2 35 7 75 20 59 18 97 23 189 23 132 0 193 -15 284 -70 72 -43 105 -44 167
-5 95 62 150 75 299 74 113 0 145 -4 194 -22 33 -12 61 -20 64 -18 2 3 -33
134 -79 292 l-83 287 -56 26 c-48 23 -68 26 -156 26 -100 0 -103 -1 -184 -42
l-82 -42 -37 25 c-90 61 -234 79 -347 43z m226 -30 c25 -6 71 -22 102 -36 l56
-25 84 33 c68 26 100 33 178 36 84 4 100 2 139 -19 l45 -23 62 -235 c34 -129
61 -236 60 -237 -1 -1 -22 3 -46 9 -25 5 -94 8 -155 5 -115 -5 -212 -30 -314
-81 l-47 -24 -72 34 c-134 64 -328 92 -447 64 -22 -5 -41 -8 -42 -6 -2 2 25
108 59 237 38 145 68 238 77 244 54 34 170 45 261 24z"/>
<path d="M2242 2790 c-40 -24 -62 -72 -63 -137 l-1 -48 -30 88 c-17 50 -35 86
-41 84 -6 -2 -26 -66 -43 -142 -18 -76 -38 -143 -43 -148 -19 -19 -12 -23 31
-19 41 4 41 5 19 21 -17 13 -20 23 -15 49 6 28 10 32 39 32 30 0 35 -4 46 -37
9 -28 9 -38 0 -41 -28 -9 -7 -22 37 -22 59 0 66 6 41 31 -32 32 -21 43 13 14
28 -23 39 -27 80 -23 67 7 78 19 78 89 0 35 4 59 11 59 5 0 8 3 6 8 -7 10
-107 2 -107 -9 0 -5 6 -9 14 -9 16 0 26 -30 26 -83 0 -36 -2 -38 -27 -35 -57
6 -97 120 -73 206 19 74 62 93 99 45 l20 -28 1 27 c0 49 -60 63 -118 28z
m-138 -144 c3 -13 9 -31 12 -40 5 -12 0 -16 -21 -16 -23 0 -26 3 -21 23 3 12
6 30 6 40 0 25 17 21 24 -7z"/>
<path d="M2455 2664 c-21 -74 -44 -142 -51 -149 -21 -21 -17 -25 26 -25 40 0
53 13 25 24 -8 3 -15 16 -15 29 0 35 22 59 51 55 18 -2 26 -12 33 -41 8 -29 7
-40 -3 -46 -27 -17 11 -23 96 -16 79 6 83 8 69 24 -10 11 -16 36 -16 65 l0 47
33 -6 c42 -8 68 18 74 77 4 34 0 49 -17 71 -20 25 -27 27 -91 27 -63 0 -85 -9
-59 -25 13 -8 13 -255 0 -255 -14 0 -24 24 -60 158 -18 67 -38 122 -45 122 -6
0 -29 -61 -50 -136z m265 79 c14 -47 -1 -96 -28 -91 -13 2 -18 15 -20 52 -2
27 -1 55 2 62 10 27 35 14 46 -23z m-211 -115 c1 -5 -11 -8 -25 -8 -24 0 -25
2 -19 33 11 50 18 54 31 16 7 -18 13 -37 13 -41z"/>
<path d="M2780 2785 c0 -4 6 -13 14 -19 13 -9 12 -25 -4 -111 -27 -140 -29
-145 -45 -145 -8 0 -15 -3 -15 -8 0 -11 163 -43 172 -34 4 4 11 23 14 42 l7
35 -22 -27 c-25 -31 -68 -38 -77 -13 -4 8 -2 36 2 62 11 58 37 70 56 26 l11
-28 12 50 c13 56 11 67 -8 41 -7 -10 -22 -16 -33 -14 -15 3 -18 10 -15 38 4
43 17 70 35 70 16 0 46 -32 46 -49 0 -7 5 -9 10 -6 6 3 10 19 10 34 0 27 -3
29 -69 39 -38 7 -76 15 -85 18 -9 3 -16 3 -16 -1z"/>
<path d="M2400 2021 l0 -209 33 -13 c37 -16 109 -16 150 0 l27 11 0 209 0 210
-35 -15 c-44 -18 -102 -18 -139 1 -15 8 -30 15 -32 15 -2 0 -4 -94 -4 -209z"/>
<path d="M2100 1729 c-30 -12 -70 -48 -70 -62 0 -6 10 -1 23 11 12 11 35 26
51 32 25 9 34 8 55 -8 53 -39 41 -80 -54 -187 -41 -46 -75 -89 -75 -94 0 -7
40 -11 110 -11 l110 0 0 43 c-1 37 -2 40 -14 25 -11 -14 -28 -18 -87 -18 l-74
1 50 42 c103 86 125 112 125 149 0 63 -82 106 -150 77z"/>
<path d="M2335 1718 c-38 -29 -55 -76 -55 -148 0 -72 17 -119 55 -148 77 -60
165 19 165 148 0 129 -88 208 -165 148z m71 4 c27 -17 38 -61 38 -147 1 -126
-25 -181 -74 -155 -53 28 -54 269 -2 299 21 12 24 13 38 3z"/>
<path d="M2592 1727 c-54 -30 -81 -121 -62 -211 19 -91 79 -135 144 -103 92
43 95 266 5 312 -34 18 -57 18 -87 2z m88 -43 c14 -37 12 -204 -3 -233 -21
-42 -43 -49 -69 -23 -21 21 -23 31 -23 143 0 115 1 122 23 140 29 23 58 12 72
-27z"/>
<path d="M2820 1712 c-117 -118 -10 -389 115 -290 38 29 55 76 55 148 0 72
-17 119 -55 148 -39 31 -80 28 -115 -6z m80 8 c25 -13 40 -70 40 -150 0 -110
-26 -169 -68 -155 -32 10 -47 62 -46 160 1 86 12 130 38 147 14 10 14 10 36
-2z"/>
<path d="M959 4056 c-77 -58 -119 -134 -119 -213 0 -88 53 -151 135 -160 81
-10 173 41 225 124 40 63 39 91 -7 129 -35 29 -36 33 -25 58 18 40 3 30 -63
-42 -42 -46 -51 -60 -31 -48 l29 19 44 -46 c43 -46 43 -47 29 -75 -29 -57
-104 -84 -169 -63 -47 16 -114 89 -122 135 -18 95 60 187 144 170 37 -8 41 8
9 30 -29 21 -28 21 -79 -18z"/>
<path d="M722 3778 c-16 -29 -28 -55 -25 -58 2 -3 9 3 14 13 6 9 17 17 26 17
17 0 169 -86 178 -100 2 -4 -14 -10 -38 -14 -23 -4 -93 -16 -155 -28 -113 -20
-113 -21 -138 -60 -38 -60 -42 -78 -13 -51 l24 22 120 -73 c108 -65 120 -76
118 -99 -1 -15 0 -27 2 -27 6 0 66 102 62 106 -2 3 -10 -2 -17 -11 -7 -8 -18
-15 -24 -15 -16 0 -219 120 -213 126 4 4 369 74 384 74 2 0 3 4 3 9 0 5 -55
41 -122 81 -147 87 -160 98 -152 122 10 33 -4 19 -34 -34z"/>
<path d="M4463 3495 c2 -29 -1 -31 -128 -86 l-130 -57 -24 21 c-13 12 -22 17
-20 12 27 -70 65 -155 70 -155 3 0 4 13 1 28 -4 28 0 30 128 87 128 57 133 58
147 39 13 -17 12 -19 -11 -22 -32 -4 -34 -20 -3 -31 29 -12 54 -40 62 -73 5
-20 3 -27 -12 -31 -10 -3 -72 -22 -137 -42 l-119 -37 -20 23 c-22 28 -22 27 8
-78 19 -67 31 -81 30 -36 0 26 5 28 138 69 129 39 138 41 147 23 16 -30 11
-71 -12 -96 -29 -31 -20 -36 36 -22 47 12 57 22 32 32 -19 8 -89 232 -83 264
3 19 0 27 -13 30 -10 3 -29 29 -42 61 -14 32 -30 68 -36 82 l-12 25 3 -30z"/>
<path d="M545 3433 c-45 -23 -65 -44 -88 -88 -25 -50 -27 -137 -4 -182 43 -83
146 -115 232 -73 142 69 144 296 2 349 -41 16 -107 13 -142 -6z m118 -59 c50
-17 103 -68 113 -110 15 -58 -54 -134 -122 -134 -57 0 -128 28 -164 65 -29 30
-35 43 -35 80 0 95 92 139 208 99z"/>
<path d="M337 3084 c-10 -42 -16 -78 -14 -81 3 -2 8 5 12 16 3 12 11 21 17 21
26 0 313 -83 334 -97 29 -18 31 -37 6 -55 -38 -27 -38 -68 -1 -68 45 0 49 88
6 150 -35 52 -64 67 -192 101 -132 35 -148 43 -140 70 4 11 3 19 -2 19 -4 0
-16 -34 -26 -76z"/>
<path d="M4314 3000 c3 -14 9 -44 12 -67 8 -50 19 -55 28 -13 5 27 10 30 41
30 38 0 45 -9 59 -77 6 -28 3 -34 -29 -59 -33 -25 -38 -26 -47 -11 -21 38 -24
13 -7 -59 10 -42 17 -110 17 -152 -2 -113 36 -172 107 -172 46 0 65 20 110
112 34 70 44 83 67 86 31 4 58 -28 58 -71 0 -27 -38 -77 -60 -77 -5 0 -10 -4
-10 -10 0 -5 16 -10 35 -10 31 0 35 3 41 36 10 52 -1 123 -23 153 -15 19 -31
27 -60 29 -48 4 -60 -8 -108 -106 -46 -95 -76 -112 -120 -67 -45 44 -24 133
35 153 44 16 38 35 -10 30 -25 -2 -39 0 -37 7 2 5 62 54 135 108 110 83 130
102 122 116 -6 13 -46 24 -162 45 -117 21 -159 33 -177 49 l-24 22 7 -25z
m239 -80 c4 -4 -9 -19 -29 -35 -40 -31 -54 -24 -54 27 0 25 2 26 38 21 20 -3
41 -9 45 -13z"/>
<path d="M309 2968 c-7 -31 -36 -284 -33 -288 3 -2 7 6 11 18 4 16 13 22 32
22 39 0 251 -29 262 -35 5 -4 9 -17 9 -31 0 -14 4 -22 10 -19 6 3 10 20 10 38
0 17 8 82 17 144 9 62 14 115 11 118 -3 3 -23 9 -44 12 l-39 6 28 -32 c22 -26
27 -42 27 -84 0 -78 -6 -82 -87 -71 -68 9 -68 9 -66 39 4 56 13 76 41 86 33
13 18 24 -45 32 -41 5 -59 -7 -28 -19 18 -7 22 -109 5 -119 -17 -10 -118 6
-123 20 -11 28 15 105 44 129 16 14 29 27 29 30 0 6 -69 9 -71 4z"/>
<path d="M441 2645 c-17 -15 -39 -50 -51 -83 -26 -68 -45 -92 -75 -92 -63 0
-70 108 -9 140 34 19 30 32 -8 28 -29 -3 -34 -8 -42 -39 -12 -49 1 -124 27
-155 27 -31 78 -35 108 -8 12 10 37 51 55 90 37 77 69 103 104 84 64 -35 47
-156 -25 -174 -39 -10 -29 -26 16 -26 36 0 41 3 55 35 28 68 11 159 -37 199
-39 33 -79 33 -118 1z"/>
<path d="M374 2262 c-50 -40 -55 -109 -11 -150 33 -30 70 -36 110 -17 94 44
64 185 -40 185 -21 0 -48 -8 -59 -18z"/>
<path d="M4509 2241 c-49 -49 -38 -125 23 -157 66 -34 143 12 143 88 0 33 -6
45 -33 69 -44 40 -93 40 -133 0z"/>
<path d="M451 1942 c-49 -26 -73 -75 -68 -137 5 -74 35 -129 71 -133 41 -5 56
14 17 23 -43 9 -74 51 -67 89 8 40 32 65 85 88 50 23 95 18 135 -13 30 -24 35
-72 11 -106 -20 -28 -3 -38 25 -15 20 16 20 21 10 67 -28 125 -126 187 -219
137z"/>
<path d="M4376 1925 c-9 -20 -16 -43 -16 -49 0 -6 27 -38 60 -71 33 -33 60
-63 60 -67 0 -4 -41 -9 -92 -10 l-91 -3 -12 -35 c-7 -19 -29 -59 -49 -89 -38
-58 -40 -70 -8 -50 17 11 30 6 96 -35 80 -50 101 -74 91 -106 -11 -34 -46 -70
-68 -70 -13 0 -60 23 -105 52 -65 41 -81 55 -76 70 11 35 -11 17 -37 -30 -45
-81 -119 -172 -134 -165 -10 3 -15 -1 -15 -13 0 -24 -106 -143 -138 -155 -14
-5 -22 -12 -19 -15 3 -3 -18 -26 -46 -52 -29 -25 -54 -48 -57 -52 -3 -3 -22
-16 -42 -29 -41 -24 -50 -42 -19 -34 16 4 21 -2 26 -29 3 -18 9 -55 14 -81 10
-56 10 -56 -75 -2 -44 28 -55 40 -51 56 7 25 4 25 -59 -13 -57 -35 -66 -48
-34 -48 11 0 69 -31 129 -70 104 -67 131 -80 131 -61 0 4 -9 66 -20 136 -17
116 -18 129 -3 151 8 13 23 24 32 23 9 0 43 -32 76 -71 76 -90 79 -96 65 -114
-23 -26 1 -14 55 29 58 46 68 61 32 52 -18 -5 -32 5 -72 52 -81 93 -87 102
-80 121 5 15 9 14 25 -8 l20 -25 0 33 c0 18 5 42 11 53 9 18 17 14 94 -57 75
-68 84 -80 79 -103 -7 -29 -9 -30 57 43 37 41 40 48 20 41 -20 -6 -34 4 -102
71 -85 84 -89 104 -23 104 38 0 41 6 19 30 -14 15 -14 18 0 30 10 8 19 9 28 3
120 -91 165 -134 161 -155 -5 -23 -5 -22 13 2 10 13 30 39 46 56 31 37 35 49
9 35 -15 -8 -35 3 -105 60 -48 38 -87 72 -87 75 0 12 21 44 30 44 5 0 44 -22
87 -50 108 -69 140 -66 194 18 19 30 29 59 29 84 0 36 -3 40 -85 94 -51 34
-85 64 -85 74 0 17 30 50 46 50 5 0 50 -18 101 -41 69 -31 93 -47 95 -63 3
-17 7 -14 21 18 21 48 22 65 1 44 -18 -18 -38 -13 -132 30 l-43 19 47 7 c26 3
72 6 104 6 31 0 60 3 64 7 3 4 -26 40 -66 80 -40 40 -69 73 -66 73 4 0 39 -12
77 -26 54 -20 71 -31 71 -45 0 -36 15 -19 38 44 25 71 28 89 9 63 -13 -18 -18
-17 -113 16 -72 26 -102 42 -111 58 -11 23 -12 22 -27 -15z"/>
<path d="M678 1710 c-4 -29 -184 -128 -201 -111 -26 26 -24 7 6 -49 32 -60 46
-74 43 -43 -1 15 64 62 87 63 17 0 4 -37 -30 -87 l-36 -53 18 -40 c18 -40 35
-53 35 -25 0 8 14 36 30 62 17 26 30 53 30 60 0 8 10 6 34 -8 26 -15 39 -17
59 -10 45 17 44 51 -4 151 -47 101 -66 124 -71 90z m60 -127 c2 -24 -2 -34
-18 -43 -28 -15 -62 -6 -77 19 -12 19 -9 23 25 40 49 27 66 23 70 -16z"/>
<path d="M815 1464 c0 -22 -15 -37 -87 -87 -69 -48 -91 -58 -100 -49 -29 29
-27 8 2 -30 18 -24 48 -68 68 -98 19 -30 36 -57 38 -59 6 -6 64 21 64 30 0 5
-13 9 -29 9 -30 0 -81 42 -81 66 0 7 20 27 44 44 l45 30 15 -21 c11 -16 12
-28 5 -47 -14 -36 -6 -37 42 -5 40 26 41 28 18 31 -28 4 -59 29 -59 48 0 7 16
23 36 35 l37 22 19 -23 c13 -16 18 -35 16 -57 -4 -36 6 -41 35 -19 17 13 14
19 -44 98 -34 45 -64 89 -66 96 -9 21 -19 13 -18 -14z"/>
<path d="M920 1159 c-58 -21 -117 -37 -132 -36 -16 2 -28 1 -28 -3 0 -3 19
-24 41 -45 28 -27 40 -33 35 -20 -13 35 -12 38 17 54 27 16 29 15 57 -16 28
-31 29 -34 15 -65 -10 -26 -18 -32 -37 -30 -19 3 -14 -6 32 -52 30 -31 55 -56
57 -56 1 0 0 12 -3 28 -4 19 9 59 45 141 28 62 51 119 51 127 0 22 -36 15
-150 -27z m60 -4 c0 -3 -7 -22 -15 -42 -15 -35 -16 -35 -35 -18 -27 25 -25 39
8 52 32 13 42 15 42 8z"/>
<path d="M1110 1080 l-35 -31 32 6 c40 8 76 -2 70 -19 -3 -7 -34 -50 -68 -95
-48 -62 -68 -81 -82 -77 -28 7 -17 -8 36 -48 54 -41 61 -43 52 -16 -5 15 11
42 60 105 37 47 68 85 70 85 14 0 35 -37 35 -63 l0 -31 30 29 c34 33 38 45 12
45 -22 0 -158 98 -169 123 -7 16 -11 15 -43 -13z"/>
<path d="M1330 932 c0 -4 5 -13 11 -19 16 -16 -104 -191 -133 -195 -18 -2 -11
-10 35 -40 64 -43 72 -46 56 -20 -10 16 -2 33 52 110 34 51 67 92 71 92 19 0
49 -43 45 -63 -5 -19 -11 -206 -8 -245 1 -18 21 -6 131 82 95 76 127 89 150
62 18 -22 -55 -216 -82 -216 -10 0 -18 -3 -18 -8 0 -9 123 -52 130 -45 3 3 -1
8 -7 10 -19 7 -16 22 23 127 29 77 41 96 56 96 20 0 20 -1 1 -47 -7 -17 7 -16
31 2 29 22 69 20 62 -2 -2 -10 -14 -62 -26 -116 -19 -85 -24 -97 -42 -97 -34
0 -14 -10 49 -25 75 -18 79 -18 61 3 -14 15 -13 27 9 122 13 57 25 106 27 107
1 1 12 0 23 -3 12 -4 26 -19 32 -36 12 -35 27 -30 36 12 9 43 8 45 -28 42 -36
-3 -166 24 -183 39 -7 5 -16 9 -20 8 -5 -1 -18 1 -29 6 -11 4 -54 21 -95 37
-41 16 -79 33 -85 39 -16 16 -26 10 -20 -14 5 -19 -4 -32 -48 -70 -31 -26 -58
-47 -61 -47 -8 0 -7 119 0 148 4 14 12 21 20 18 8 -3 14 -1 14 4 0 5 -28 23
-61 40 -34 17 -88 49 -120 71 -33 22 -59 36 -59 31z"/>
<path d="M3417 789 c-16 -4 -63 -26 -105 -47 -43 -22 -131 -57 -197 -78 -90
-29 -113 -40 -95 -44 21 -5 30 -20 60 -109 32 -96 33 -104 17 -116 -32 -23
-17 -24 56 0 39 13 91 29 115 35 39 10 42 13 42 45 0 43 -10 44 -32 5 -19 -33
-58 -56 -81 -47 -8 3 -22 26 -30 52 -16 46 -16 46 8 57 21 9 29 8 45 -7 28
-25 35 -13 21 35 -11 39 -31 55 -31 25 0 -15 -29 -35 -53 -35 -7 0 -19 17 -25
38 -10 32 -9 39 5 50 20 14 69 16 78 2 3 -5 13 -10 20 -10 11 0 12 6 5 24 -7
19 -5 26 6 30 24 9 30 2 79 -101 35 -75 43 -99 34 -110 -21 -25 -5 -21 61 13
44 22 58 33 43 34 -16 0 -29 12 -43 40 -37 73 -20 79 61 22 l54 -39 43 19 43
19 -38 21 c-21 12 -57 31 -80 43 -41 22 -42 23 -23 40 11 10 20 30 20 45 0 42
-35 62 -83 49z m8 -63 c18 -28 9 -58 -24 -75 -15 -8 -21 -3 -38 32 -24 51 -20
67 18 67 19 0 34 -8 44 -24z"/>
<path d="M2875 611 c-51 -21 -76 -89 -45 -125 7 -9 31 -21 54 -27 74 -20 94
-30 99 -51 7 -27 -26 -58 -62 -58 -21 0 -37 9 -55 33 l-26 32 0 -31 c0 -44 21
-58 76 -51 53 6 93 31 113 72 12 24 11 32 -2 61 -13 26 -26 36 -59 45 -24 6
-54 15 -68 18 -16 5 -26 16 -28 31 -7 43 47 54 85 18 27 -25 36 -20 27 16 -5
23 -11 26 -48 25 -22 0 -50 -4 -61 -8z"/>
<path d="M2182 573 c-10 -16 -44 -70 -76 -120 -35 -56 -64 -93 -74 -93 -32 -1
10 -17 58 -23 l45 -6 -25 19 c-21 16 -23 21 -12 44 10 22 18 26 51 26 42 0 55
-10 65 -52 5 -21 3 -28 -9 -28 -8 0 -15 -4 -15 -8 0 -8 131 -34 138 -27 2 2
-5 12 -15 22 -11 11 -33 72 -52 146 -35 135 -45 148 -79 100z m2 -85 c10 -41
7 -48 -24 -48 -35 0 -35 1 -15 40 19 36 31 38 39 8z"/>
<path d="M2440 573 c-30 -11 -60 -47 -60 -73 0 -38 22 -63 79 -89 57 -27 71
-53 45 -82 -33 -36 -93 -19 -109 31 -9 30 -25 24 -25 -9 0 -40 21 -54 85 -55
64 0 105 24 119 72 12 44 -12 76 -79 109 -43 20 -55 30 -55 48 0 45 63 48 88
5 22 -38 32 -38 32 0 0 19 -7 33 -19 40 -21 11 -75 12 -101 3z"/>
</g>
</svg>
